<svg width="23" height="19" viewBox="0 0 23 19" fill="none" xmlns="http://www.w3.org/2000/svg">
<path d="M0.823139 0.124956C0.719614 0.123492 0.61683 0.142618 0.520761 0.181222C0.424692 0.219827 0.337254 0.27714 0.263528 0.349831C0.189801 0.422522 0.131258 0.509141 0.0912984 0.604654C0.0513393 0.700168 0.0307617 0.802671 0.0307617 0.906206C0.0307617 1.00974 0.0513393 1.11224 0.0912984 1.20776C0.131258 1.30327 0.189801 1.38989 0.263528 1.46258C0.337254 1.53527 0.424692 1.59259 0.520761 1.63119C0.61683 1.66979 0.719614 1.68892 0.823139 1.68746H2.25848C2.63761 1.68746 2.95365 1.9494 3.02549 2.32222L3.18113 3.13602L4.86061 11.9566C5.16432 13.548 6.56644 14.7083 8.18703 14.7083H17.9384C19.559 14.7083 20.9617 13.5485 21.2648 11.9566L22.9443 3.13602C22.9659 3.02309 22.9622 2.90679 22.9336 2.79543C22.9051 2.68406 22.8523 2.58038 22.779 2.49177C22.7057 2.40316 22.6138 2.3318 22.5098 2.2828C22.4058 2.2338 22.2923 2.20836 22.1773 2.20829H4.59409L4.56052 2.03027C4.35056 0.929921 3.37885 0.124956 2.25848 0.124956H0.823139ZM4.89215 3.77079H21.2333L19.7298 11.6647C19.5652 12.5291 18.8189 13.1458 17.9384 13.1458H8.18703C7.30689 13.1458 6.56105 12.529 6.39565 11.6647V11.6637L4.89215 3.77079ZM9.41689 15.75C9.00249 15.75 8.60506 15.9146 8.31203 16.2076C8.01901 16.5006 7.85439 16.8981 7.85439 17.3125C7.85439 17.7269 8.01901 18.1243 8.31203 18.4173C8.60506 18.7103 9.00249 18.875 9.41689 18.875C9.83129 18.875 10.2287 18.7103 10.5217 18.4173C10.8148 18.1243 10.9794 17.7269 10.9794 17.3125C10.9794 16.8981 10.8148 16.5006 10.5217 16.2076C10.2287 15.9146 9.83129 15.75 9.41689 15.75ZM16.7086 15.75C16.2942 15.75 15.8967 15.9146 15.6037 16.2076C15.3107 16.5006 15.1461 16.8981 15.1461 17.3125C15.1461 17.7269 15.3107 18.1243 15.6037 18.4173C15.8967 18.7103 16.2942 18.875 16.7086 18.875C17.123 18.875 17.5204 18.7103 17.8134 18.4173C18.1064 18.1243 18.2711 17.7269 18.2711 17.3125C18.2711 16.8981 18.1064 16.5006 17.8134 16.2076C17.5204 15.9146 17.123 15.75 16.7086 15.75Z" fill="#7F7F7F"/>
</svg>
